<svg width="30" height="30" viewBox="0 0 30 30" fill="none" xmlns="http://www.w3.org/2000/svg">
<path d="M29 15C29 21.988 23.8802 27.7799 17.1875 28.8299V19.0469H20.4496L21.0703 15H17.1875V12.3739C17.1875 11.2665 17.73 10.1875 19.4691 10.1875H21.2344V6.74219C21.2344 6.74219 19.632 6.46875 18.1002 6.46875C14.9027 6.46875 12.8125 8.40687 12.8125 11.9156V15H9.25781V19.0469H12.8125V28.8299C6.11984 27.7799 1 21.988 1 15C1 7.26828 7.26828 1 15 1C22.7317 1 29 7.26828 29 15Z" fill="#1877F2"/>
<path d="M20.4496 19.0469L21.0703 15H17.1875V12.3739C17.1875 11.2667 17.7299 10.1875 19.469 10.1875H21.2344V6.74219C21.2344 6.74219 19.6323 6.46875 18.1005 6.46875C14.9026 6.46875 12.8125 8.40688 12.8125 11.9156V15H9.25781V19.0469H12.8125V28.8299C13.5253 28.9417 14.2558 29 15 29C15.7442 29 16.4747 28.9417 17.1875 28.8299V19.0469H20.4496Z" fill="white"/>
</svg>
