<svg width="30" height="30" viewBox="0 0 30 30" fill="none" xmlns="http://www.w3.org/2000/svg">
<path d="M15 29C22.732 29 29 22.732 29 15C29 7.26801 22.732 1 15 1C7.26801 1 1 7.26801 1 15C1 22.732 7.26801 29 15 29Z" fill="url(#paint0_linear_339_17067)"/>
<path d="M17.9743 7.22168H12.0321C9.3814 7.22168 7.22852 9.37457 7.22852 12.0252V17.9675C7.22852 20.6181 9.3814 22.771 12.0321 22.771H17.9743C20.625 22.771 22.7778 20.6181 22.7778 17.9675V12.0252C22.7778 9.37457 20.625 7.22168 17.9743 7.22168ZM21.0418 17.9737C21.0418 19.6661 19.6667 21.0475 17.9681 21.0475H12.0258C10.3334 21.0475 8.95207 19.6723 8.95207 17.9737V12.0315C8.95207 10.339 10.3272 8.95768 12.0258 8.95768H17.9681C19.6605 8.95768 21.0418 10.3328 21.0418 12.0315V17.9737Z" fill="white"/>
<path d="M14.9999 11.0234C12.8097 11.0234 11.0239 12.8092 11.0239 14.9994C11.0239 17.1897 12.8097 18.9754 14.9999 18.9754C17.1901 18.9754 18.9759 17.1897 18.9759 14.9994C18.9759 12.8092 17.1901 11.0234 14.9999 11.0234ZM14.9999 17.4137C13.6684 17.4137 12.5857 16.331 12.5857 14.9994C12.5857 13.6679 13.6684 12.5852 14.9999 12.5852C16.3315 12.5852 17.4141 13.6679 17.4141 14.9994C17.4141 16.331 16.3315 17.4137 14.9999 17.4137Z" fill="white"/>
<path d="M19.2787 11.4592C19.645 11.3999 19.8938 11.0548 19.8344 10.6885C19.7751 10.3221 19.43 10.0733 19.0637 10.1327C18.6973 10.1921 18.4485 10.5372 18.5079 10.9035C18.5673 11.2698 18.9124 11.5186 19.2787 11.4592Z" fill="white"/>
<defs>
<linearGradient id="paint0_linear_339_17067" x1="4.34003" y1="25.66" x2="24.2356" y2="5.76442" gradientUnits="userSpaceOnUse">
<stop stop-color="#FEE411"/>
<stop offset="0.0518459" stop-color="#FEDB16"/>
<stop offset="0.1381" stop-color="#FEC125"/>
<stop offset="0.2481" stop-color="#FE983D"/>
<stop offset="0.3762" stop-color="#FE5F5E"/>
<stop offset="0.5" stop-color="#FE2181"/>
<stop offset="1" stop-color="#9000DC"/>
</linearGradient>
</defs>
</svg>
